<?xml version="1.0" encoding="UTF-8"?>
<svg id="Ebene_1" xmlns="http://www.w3.org/2000/svg" xmlns:xlink="http://www.w3.org/1999/xlink" version="1.1" viewBox="0 0 411.02 411.02">
  <!-- Generator: Adobe Illustrator 29.0.0, SVG Export Plug-In . SVG Version: 2.1.0 Build 186)  -->
  <defs>
    <style>
      .st0 {
        fill: url(#Unbenannter_Verlauf);
      }

      .st1 {
        opacity: .4;
      }

      .st2 {
        opacity: .35;
      }

      .st3 {
        opacity: .3;
      }

      .st4 {
        fill: #1d3e34;
      }
    </style>
    <linearGradient id="Unbenannter_Verlauf" data-name="Unbenannter Verlauf" x1="-750.7" y1="747.44" x2="-749.41" y2="747.44" gradientTransform="translate(-22841.52 268614.23) rotate(49.96) scale(254.57 -254.64) skewX(.09)" gradientUnits="userSpaceOnUse">
      <stop offset=".28" stop-color="#29a0b1"/>
      <stop offset="1" stop-color="#ff6b6b"/>
    </linearGradient>
  </defs>
  <rect x="7.09" y="7.09" width="396.85" height="396.85" rx="16.17" ry="16.17"/>
  <g>
    <g id="_8">
      <path class="st0" d="M366.91,174.76c-1.09-6.27-2.54-12.46-4.36-18.55l-1.69-.26c-9.29-30.35-27.18-57.34-51.52-77.71-4.87-4.09-9.98-7.88-15.28-11.39l-1.45.89c-32.11-20.78-70.45-29.72-108.43-25.3-.2.54-.38,1.08-.57,1.61-31.51,3.87-61.2,16.81-85.5,37.24-4.87,4.1-9.5,8.46-13.87,13.09.2.54.42,1.05.63,1.58-21.64,23.21-36.06,52.2-41.54,83.47-1.09,6.25-1.83,12.56-2.21,18.9l1.45.84c-1.66,31.68,5.92,63.17,21.81,90.62,3.18,5.53,6.67,10.86,10.47,16l1.69-.33c23.08,30.49,56.04,52.01,93.25,60.87l1.08-1.34c30.93,7.11,63.25,5.09,93.06-5.82,5.95-2.18,11.78-4.71,17.45-7.55v-1.72c28.28-14.4,51.77-36.69,67.62-64.18,3.17-5.51,6.03-11.21,8.56-17.04-.38-.44-.76-.86-1.12-1.29,12.39-29.21,16.02-61.39,10.48-92.63ZM190.81,243.94c-7.34-5.82-14.4-11.96-21.19-18.42-1.87-9.21-3.33-18.45-4.36-27.73,4.49-8.26,9.34-16.28,14.54-24.07,8.72-3.45,17.58-6.49,26.55-9.15,8.91,3,17.63,6.35,26.17,10.06,4.91,8.01,9.44,16.19,13.61,24.56-1.4,9.3-3.18,18.51-5.35,27.63-7.06,6.22-14.33,12.12-21.81,17.68-9.45.18-18.84,0-28.17-.57Z"/>
    </g>
    <g id="_81" data-name="_8">
      <path d="M205.53,37.17c-93.15,0-168.66,75.5-168.68,168.65-.01,93.15,75.48,168.68,168.63,168.7,93.15.03,168.68-75.45,168.72-168.6-.1-93.12-75.55-168.6-168.68-168.75ZM355.08,266.74c-44.42-51.24-91.51-82.62-144.96-101.16,46.71-9.79,97.6-8.61,152.68,3.55,7.6,32.54,4.91,66.66-7.68,97.61h-.04ZM86.03,97.41c24.21,63.15,57.67,108.62,101.47,144.26-47.23-6.79-94.64-25.31-142.23-55.56,4.07-33.08,18.32-64.07,40.76-88.7ZM95.38,87.95c24.33-22.79,55.12-37.46,88.15-41.99-22.03,63.98-25.64,120.25-14.98,175.7-31.77-35.49-56.16-80.06-73.17-133.7ZM169.16,222.33c-1.16-9.02-1.91-18.11-2.24-27.28,4.9-7.66,10.17-15.1,15.82-22.33,8.72-2.72,17.55-5.04,26.48-6.95,8.4,3.51,16.64,7.39,24.72,11.63,4.19,8.08,8,16.37,11.44,24.88-2,8.84-4.42,17.62-7.27,26.35-7.24,5.53-14.76,10.73-22.57,15.62-9.07-.41-18.15-1.25-27.22-2.53-6.63-6.1-13.02-12.56-19.17-19.38ZM359.16,156.27c-66.89-10.66-123.06-4.36-175.87,15.72,29.45-37.46,69.11-69.22,118.97-95.27,26.7,20.02,46.57,47.81,56.9,79.55ZM291.28,69.17c-57.97,34.81-96.93,75.61-124.41,124.95-1.53-47.61,8.43-97.42,29.9-149.44,2.91-.16,5.82-.24,8.72-.25,30.38-.04,60.13,8.54,85.82,24.73h-.03ZM44.2,199.4c59.23,32.91,114.15,46.27,170.67,45.41-40.58,25.2-88.84,41.5-144.78,48.9-17.03-26.12-26.07-56.62-26.03-87.8,0-2.18.06-4.35.15-6.51ZM77.8,304.59c66.6-12.87,117.32-37.94,160.1-74.96-14.92,45.43-41.47,88.99-79.64,130.68-31.92-9.83-60.03-29.3-80.46-55.72ZM171.17,363.69c42.84-52.71,65.59-104.56,74.58-160.49,17.79,44.39,25.46,94.8,23,151.23-30.78,13.1-64.88,16.31-97.58,9.2v.06ZM280.81,348.72c-1.08-67.89-16.97-122.22-46.02-170.81,42.11,22.54,80.36,56.2,114.76,100.97-15.18,29.79-39.19,54.18-68.74,69.84Z"/>
    </g>
    <g id="_82" data-name="_8">
      <path d="M389.76,205.32c0-74.52-44.89-141.7-113.74-170.23C207.17,6.57,127.92,22.35,75.23,75.05,22.53,127.74,6.77,206.99,35.3,275.84c28.51,68.84,95.71,113.72,170.23,113.72,101.7-.12,184.12-82.55,184.23-184.25ZM28.55,205.32C28.55,107.58,107.79,28.34,205.53,28.34s176.98,79.23,176.98,176.98-79.23,176.98-176.98,176.98c-97.7-.12-176.86-79.28-176.98-176.98Z"/>
    </g>
    <g id="xm-YpS8mBq-U1uD4tCr8f">
      <g class="st3">
        <g id="Layer_1-2">
          <path class="st4" d="M75.18,203.52c0-71.85,58.25-130.1,130.1-130.1s130.1,58.25,130.1,130.1-58.25,130.1-130.1,130.1-130.1-58.25-130.1-130.1h0Z"/>
        </g>
      </g>
    </g>
    <g id="Zb5a4BqOsfUzhKsfL3oAS">
      <g class="st2">
        <g id="Layer_1-21" data-name="Layer_1-2">
          <path class="st4" d="M106.26,203.52c0-54.68,44.33-99.01,99.01-99.01s99.01,44.33,99.01,99.01-44.33,99.01-99.01,99.01-99.01-44.33-99.01-99.01h0Z"/>
        </g>
      </g>
    </g>
    <g id="L3c_qJBb-75yrT1M3BD6c">
      <g class="st1">
        <g id="Layer_1-22" data-name="Layer_1-2">
          <path class="st4" d="M136.08,203.52c0-38.22,30.98-69.2,69.2-69.2s69.2,30.98,69.2,69.2-30.98,69.2-69.2,69.2-69.2-30.98-69.2-69.2Z"/>
        </g>
      </g>
    </g>
  </g>
</svg>