<?xml version="1.0" encoding="UTF-8"?>
<svg id="Ebene_1" xmlns="http://www.w3.org/2000/svg" xmlns:xlink="http://www.w3.org/1999/xlink" version="1.1" viewBox="0 0 411.02 411.02">
  <!-- Generator: Adobe Illustrator 29.1.0, SVG Export Plug-In . SVG Version: 2.1.0 Build 142)  -->
  <defs>
    <style>
      .st0 {
        fill: url(#Unbenannter_Verlauf);
      }

      .st1 {
        fill: url(#Unbenannter_Verlauf13);
      }

      .st2 {
        fill: url(#Unbenannter_Verlauf11);
      }

      .st3 {
        fill: url(#Unbenannter_Verlauf10);
      }

      .st4 {
        fill: url(#Unbenannter_Verlauf15);
      }

      .st5 {
        fill: url(#Unbenannter_Verlauf14);
      }

      .st6 {
        fill: url(#Unbenannter_Verlauf12);
      }

      .st7 {
        fill: #fff;
      }

      .st8 {
        opacity: .4;
      }

      .st9 {
        opacity: .35;
      }

      .st10 {
        opacity: .3;
      }

      .st11 {
        fill: url(#Unbenannter_Verlauf4);
      }

      .st12 {
        fill: url(#Unbenannter_Verlauf7);
      }

      .st13 {
        fill: url(#Unbenannter_Verlauf6);
      }

      .st14 {
        fill: url(#Unbenannter_Verlauf1);
      }

      .st15 {
        fill: url(#Unbenannter_Verlauf9);
      }

      .st16 {
        fill: url(#Unbenannter_Verlauf3);
      }

      .st17 {
        fill: url(#Unbenannter_Verlauf2);
      }

      .st18 {
        fill: url(#Unbenannter_Verlauf8);
      }

      .st19 {
        fill: url(#Unbenannter_Verlauf5);
      }

      .st20 {
        fill: #1d3e34;
      }
    </style>
    <linearGradient id="Unbenannter_Verlauf" data-name="Unbenannter Verlauf" x1="161.45" y1="192.29" x2="162.8" y2="192.29" gradientUnits="userSpaceOnUse">
      <stop offset=".28" stop-color="#29a0b1"/>
      <stop offset="1" stop-color="#ff6b6b"/>
    </linearGradient>
    <linearGradient id="Unbenannter_Verlauf1" data-name="Unbenannter Verlauf" x1="163.77" y1="223.41" x2="164.19" y2="223.41" xlink:href="#Unbenannter_Verlauf"/>
    <linearGradient id="Unbenannter_Verlauf2" data-name="Unbenannter Verlauf" x1="184.67" y1="245.87" x2="186.1" y2="245.87" xlink:href="#Unbenannter_Verlauf"/>
    <linearGradient id="Unbenannter_Verlauf3" data-name="Unbenannter Verlauf" x1="59.77" y1="307.2" x2="242.42" y2="307.2" xlink:href="#Unbenannter_Verlauf"/>
    <linearGradient id="Unbenannter_Verlauf4" data-name="Unbenannter Verlauf" x1="179.29" y1="167.45" x2="181.85" y2="167.45" xlink:href="#Unbenannter_Verlauf"/>
    <linearGradient id="Unbenannter_Verlauf5" data-name="Unbenannter Verlauf" x1="180.11" y1="112.47" x2="380.77" y2="112.47" xlink:href="#Unbenannter_Verlauf"/>
    <linearGradient id="Unbenannter_Verlauf6" data-name="Unbenannter Verlauf" x1="250.93" y1="201.48" x2="250.97" y2="201.48" xlink:href="#Unbenannter_Verlauf"/>
    <linearGradient id="Unbenannter_Verlauf7" data-name="Unbenannter Verlauf" x1="210.74" y1="213.51" x2="389.76" y2="213.51" xlink:href="#Unbenannter_Verlauf"/>
    <linearGradient id="Unbenannter_Verlauf8" data-name="Unbenannter Verlauf" x1="161.21" y1="106.68" x2="303.36" y2="106.68" xlink:href="#Unbenannter_Verlauf"/>
    <linearGradient id="Unbenannter_Verlauf9" data-name="Unbenannter Verlauf" x1="21.26" y1="251.94" x2="216.15" y2="251.94" xlink:href="#Unbenannter_Verlauf"/>
    <linearGradient id="Unbenannter_Verlauf10" data-name="Unbenannter Verlauf" x1="166.34" y1="296.11" x2="278.14" y2="296.11" xlink:href="#Unbenannter_Verlauf"/>
    <linearGradient id="Unbenannter_Verlauf11" data-name="Unbenannter Verlauf" x1="238.87" y1="271.07" x2="369.8" y2="271.07" xlink:href="#Unbenannter_Verlauf"/>
    <linearGradient id="Unbenannter_Verlauf12" data-name="Unbenannter Verlauf" x1="209.53" y1="160" x2="210.96" y2="160" xlink:href="#Unbenannter_Verlauf"/>
    <linearGradient id="Unbenannter_Verlauf13" data-name="Unbenannter Verlauf" x1="237.79" y1="173.42" x2="238.36" y2="173.42" xlink:href="#Unbenannter_Verlauf"/>
    <linearGradient id="Unbenannter_Verlauf14" data-name="Unbenannter Verlauf" x1="22.65" y1="164.04" x2="184.92" y2="164.04" xlink:href="#Unbenannter_Verlauf"/>
    <linearGradient id="Unbenannter_Verlauf15" data-name="Unbenannter Verlauf" x1="79.82" y1="123.25" x2="180.39" y2="123.25" xlink:href="#Unbenannter_Verlauf"/>
  </defs>
  <rect class="st7" x="7.09" y="7.09" width="396.85" height="396.85" rx="16.17" ry="16.17"/>
  <g id="symbol">
    <g>
      <path class="st0" d="M161.45,193.16c0,.11.01.22.02.33.44-.8.89-1.6,1.34-2.39-.45.69-.91,1.37-1.35,2.06Z"/>
      <path class="st14" d="M164.19,224.49c-.14-.72-.28-1.44-.41-2.16.08.65.15,1.31.23,1.96.06.07.12.13.18.2Z"/>
      <path class="st17" d="M186.1,246.44c-.48-.38-.95-.77-1.42-1.16.4.37.79.76,1.2,1.13.08.01.15.02.23.03Z"/>
      <path class="st16" d="M59.77,318.17c23.31,30.15,55.38,52.38,91.79,63.59,43.55-47.59,73.84-97.3,90.86-149.15-48.81,42.25-106.68,70.86-182.66,85.55Z"/>
      <path class="st11" d="M179.29,167.94c.85-.33,1.71-.66,2.57-.98-.78.24-1.57.46-2.36.71-.07.09-.14.18-.21.27Z"/>
      <path class="st19" d="M180.11,166.84c60.26-22.92,124.34-30.1,200.66-17.94-11.78-36.23-34.46-67.94-64.92-90.8-56.89,29.74-102.14,65.98-135.74,108.73Z"/>
      <path class="st13" d="M250.97,201.41s0-.02-.01-.02c-.01.07-.02.14-.03.2.01-.06.03-.12.04-.18Z"/>
      <path class="st12" d="M210.74,159.52c60.99,21.16,114.7,56.97,165.39,115.46h.05c14.37-35.33,17.44-74.27,8.76-111.41-62.84-13.87-120.91-15.22-174.2-4.05Z"/>
      <path class="st18" d="M195.49,21.54c-24.49,59.37-35.86,116.22-34.11,170.55,31.36-56.31,75.8-102.88,141.95-142.61h.03c-29.31-18.49-63.26-28.28-97.92-28.23-3.32.01-6.64.11-9.95.28Z"/>
      <path class="st15" d="M21.43,198.12c-.1,2.47-.17,4.95-.17,7.43-.05,35.58,10.27,70.4,29.7,100.2,63.83-8.44,118.89-27.05,165.19-55.81-64.49.98-127.15-14.27-194.72-51.83Z"/>
      <path class="st3" d="M277.63,375.05c2.8-64.4-5.95-121.93-26.25-172.6-10.25,63.81-36.2,122.97-85.05,183.11,37.3,8.1,76.18,4.43,111.29-10.51Z"/>
      <path class="st2" d="M238.87,173.59c33.15,55.46,51.28,117.46,52.51,194.95,33.71-17.87,61.1-45.7,78.42-79.71-39.24-51.1-82.88-89.52-130.93-115.24Z"/>
      <path class="st6" d="M209.53,159.78c.48.17.96.33,1.44.5-.42-.18-.83-.36-1.25-.54-.06.01-.12.03-.18.04Z"/>
      <path class="st1" d="M237.79,172.95c.19.32.38.63.57.95-.15-.29-.29-.59-.45-.89-.04-.02-.08-.04-.12-.06Z"/>
      <path class="st5" d="M22.65,182.95c54.29,34.53,108.38,55.67,162.27,63.41-49.97-40.68-88.14-92.57-115.77-164.65-25.6,28.11-41.86,63.48-46.5,101.23Z"/>
      <path class="st4" d="M180.39,22.99c-37.68,5.18-72.81,21.92-100.57,47.93,19.41,61.23,47.24,112.09,83.48,152.6-12.16-63.28-8.05-127.5,17.09-200.53Z"/>
    </g>
    <g id="xm-YpS8mBq-U1uD4tCr8f">
      <g class="st10">
        <g id="Layer_1-2">
          <path class="st20" d="M57.8,202.84c0-81.44,66-147.46,147.41-147.46s147.41,66.02,147.41,147.46-66,147.46-147.41,147.46S57.8,284.27,57.8,202.84h0Z"/>
        </g>
      </g>
    </g>
    <g id="Zb5a4BqOsfUzhKsfL3oAS">
      <g class="st9">
        <g id="Layer_1-21" data-name="Layer_1-2">
          <path class="st20" d="M93.02,202.84c0-61.98,50.23-112.23,112.19-112.23s112.19,50.25,112.19,112.23-50.23,112.23-112.19,112.23-112.19-50.25-112.19-112.23h0Z"/>
        </g>
      </g>
    </g>
    <g id="L3c_qJBb-75yrT1M3BD6c">
      <g class="st8">
        <g id="Layer_1-22" data-name="Layer_1-2">
          <path class="st20" d="M126.8,202.84c0-43.32,35.1-78.43,78.4-78.43s78.4,35.11,78.4,78.43-35.1,78.43-78.4,78.43-78.4-35.11-78.4-78.43Z"/>
        </g>
      </g>
    </g>
  </g>
</svg>