<?xml version="1.0" encoding="UTF-8"?>
<svg id="Ebene_1" xmlns="http://www.w3.org/2000/svg" xmlns:xlink="http://www.w3.org/1999/xlink" version="1.1" viewBox="0 0 1233.07 354.33">
  <!-- Generator: Adobe Illustrator 29.5.1, SVG Export Plug-In . SVG Version: 2.1.0 Build 141)  -->
  <defs>
    <style>
      .st0 {
        fill: url(#Unbenannter_Verlauf);
      }

      .st1 {
        fill: url(#Unbenannter_Verlauf13);
      }

      .st2 {
        fill: url(#Unbenannter_Verlauf11);
      }

      .st3 {
        fill: url(#Unbenannter_Verlauf10);
      }

      .st4 {
        fill: url(#Unbenannter_Verlauf15);
      }

      .st5 {
        fill: url(#Unbenannter_Verlauf14);
      }

      .st6 {
        fill: url(#Unbenannter_Verlauf12);
      }

      .st7 {
        fill: #1d1d1b;
      }

      .st8 {
        fill: #fff;
      }

      .st9 {
        opacity: .4;
      }

      .st10 {
        opacity: .35;
      }

      .st11 {
        opacity: .3;
      }

      .st12 {
        fill: url(#Unbenannter_Verlauf4);
      }

      .st13 {
        fill: url(#Unbenannter_Verlauf7);
      }

      .st14 {
        fill: url(#Unbenannter_Verlauf6);
      }

      .st15 {
        fill: url(#Unbenannter_Verlauf1);
      }

      .st16 {
        fill: url(#Unbenannter_Verlauf9);
      }

      .st17 {
        fill: url(#Unbenannter_Verlauf3);
      }

      .st18 {
        fill: url(#Unbenannter_Verlauf2);
      }

      .st19 {
        fill: url(#Unbenannter_Verlauf8);
      }

      .st20 {
        fill: url(#Unbenannter_Verlauf5);
      }

      .st21 {
        fill: #1d3e34;
      }
    </style>
    <linearGradient id="Unbenannter_Verlauf" data-name="Unbenannter Verlauf" x1="816.47" y1="169.4" x2="817.3" y2="169.4" gradientUnits="userSpaceOnUse">
      <stop offset=".28" stop-color="#29a0b1"/>
      <stop offset="1" stop-color="#ff6b6b"/>
    </linearGradient>
    <linearGradient id="Unbenannter_Verlauf1" data-name="Unbenannter Verlauf" x1="817.9" y1="188.54" x2="818.16" y2="188.54" xlink:href="#Unbenannter_Verlauf"/>
    <linearGradient id="Unbenannter_Verlauf2" data-name="Unbenannter Verlauf" x1="830.76" y1="202.36" x2="831.64" y2="202.36" xlink:href="#Unbenannter_Verlauf"/>
    <linearGradient id="Unbenannter_Verlauf3" data-name="Unbenannter Verlauf" x1="753.9" y1="240.1" x2="866.3" y2="240.1" xlink:href="#Unbenannter_Verlauf"/>
    <linearGradient id="Unbenannter_Verlauf4" data-name="Unbenannter Verlauf" x1="827.45" y1="154.11" x2="829.03" y2="154.11" xlink:href="#Unbenannter_Verlauf"/>
    <linearGradient id="Unbenannter_Verlauf5" data-name="Unbenannter Verlauf" x1="827.96" y1="120.27" x2="951.44" y2="120.27" xlink:href="#Unbenannter_Verlauf"/>
    <linearGradient id="Unbenannter_Verlauf6" data-name="Unbenannter Verlauf" x1="871.54" y1="175.05" x2="871.56" y2="175.05" xlink:href="#Unbenannter_Verlauf"/>
    <linearGradient id="Unbenannter_Verlauf7" data-name="Unbenannter Verlauf" x1="846.8" y1="182.45" x2="956.97" y2="182.45" xlink:href="#Unbenannter_Verlauf"/>
    <linearGradient id="Unbenannter_Verlauf8" data-name="Unbenannter Verlauf" x1="816.32" y1="116.71" x2="903.8" y2="116.71" xlink:href="#Unbenannter_Verlauf"/>
    <linearGradient id="Unbenannter_Verlauf9" data-name="Unbenannter Verlauf" x1="730.2" y1="206.1" x2="850.13" y2="206.1" xlink:href="#Unbenannter_Verlauf"/>
    <linearGradient id="Unbenannter_Verlauf10" data-name="Unbenannter Verlauf" x1="819.48" y1="233.28" x2="888.28" y2="233.28" xlink:href="#Unbenannter_Verlauf"/>
    <linearGradient id="Unbenannter_Verlauf11" data-name="Unbenannter Verlauf" x1="864.12" y1="217.87" x2="944.69" y2="217.87" xlink:href="#Unbenannter_Verlauf"/>
    <linearGradient id="Unbenannter_Verlauf12" data-name="Unbenannter Verlauf" x1="846.06" y1="149.53" x2="846.94" y2="149.53" xlink:href="#Unbenannter_Verlauf"/>
    <linearGradient id="Unbenannter_Verlauf13" data-name="Unbenannter Verlauf" x1="863.45" y1="157.78" x2="863.8" y2="157.78" xlink:href="#Unbenannter_Verlauf"/>
    <linearGradient id="Unbenannter_Verlauf14" data-name="Unbenannter Verlauf" x1="731.06" y1="152.01" x2="830.92" y2="152.01" xlink:href="#Unbenannter_Verlauf"/>
    <linearGradient id="Unbenannter_Verlauf15" data-name="Unbenannter Verlauf" x1="766.24" y1="126.91" x2="828.13" y2="126.91" xlink:href="#Unbenannter_Verlauf"/>
  </defs>
  <rect class="st8" x="7.09" y="7.09" width="1218.9" height="340.16" rx="26.24" ry="26.24"/>
  <g>
    <g id="symbol">
      <g>
        <path class="st0" d="M816.47,169.93c0,.07,0,.14,0,.2.27-.49.55-.98.82-1.47-.28.42-.56.84-.83,1.27Z"/>
        <path class="st15" d="M818.16,189.21c-.09-.44-.17-.89-.25-1.33.05.4.09.81.14,1.21.04.04.08.08.11.12Z"/>
        <path class="st18" d="M831.64,202.72c-.29-.24-.59-.47-.88-.71.25.23.49.47.74.69.05,0,.09.01.14.02Z"/>
        <path class="st17" d="M753.9,246.86c14.34,18.56,34.08,32.23,56.49,39.14,26.8-29.28,45.44-59.88,55.92-91.78-30.04,26-65.65,43.61-112.4,52.65Z"/>
        <path class="st12" d="M827.45,154.41c.53-.2,1.05-.41,1.58-.6-.48.15-.97.28-1.45.43-.04.06-.08.11-.13.17Z"/>
        <path class="st20" d="M827.96,153.73c37.08-14.1,76.52-18.53,123.48-11.04-7.25-22.29-21.2-41.81-39.95-55.87-35.01,18.3-62.86,40.61-83.53,66.91Z"/>
        <path class="st14" d="M871.56,175s0,0,0-.01c0,.04-.01.08-.02.13,0-.04.02-.07.03-.11Z"/>
        <path class="st13" d="M846.8,149.23c37.53,13.02,70.59,35.06,101.78,71.05h.03c8.84-21.74,10.73-45.7,5.39-68.56-38.67-8.54-74.41-9.37-107.2-2.49Z"/>
        <path class="st19" d="M837.42,64.32c-15.07,36.53-22.07,71.52-20.99,104.96,19.3-34.65,46.65-63.31,87.35-87.76h.02c-18.04-11.38-38.93-17.4-60.26-17.37-2.04,0-4.08.06-6.13.17Z"/>
        <path class="st16" d="M730.31,172.98c-.06,1.52-.1,3.04-.1,4.58-.03,21.9,6.32,43.32,18.27,61.66,39.28-5.19,73.16-16.64,101.65-34.35-39.68.6-78.24-8.78-119.83-31.89Z"/>
        <path class="st3" d="M887.97,281.86c1.72-39.63-3.66-75.04-16.15-106.21-6.31,39.27-22.28,75.67-52.34,112.68,22.95,4.99,46.88,2.73,68.49-6.47Z"/>
        <path class="st2" d="M864.12,157.89c20.4,34.13,31.56,72.29,32.31,119.97,20.75-11,37.6-28.13,48.26-49.05-24.15-31.45-51.01-55.09-80.57-70.92Z"/>
        <path class="st6" d="M846.06,149.38c.29.1.59.2.88.31-.26-.11-.51-.22-.77-.33-.04,0-.07.02-.11.03Z"/>
        <path class="st1" d="M863.45,157.49c.12.19.23.39.35.58-.09-.18-.18-.37-.28-.55-.02-.01-.05-.03-.07-.04Z"/>
        <path class="st5" d="M731.06,163.65c33.41,21.25,66.7,34.26,99.86,39.02-30.75-25.03-54.24-56.97-71.24-101.32-15.75,17.3-25.76,39.06-28.62,62.3Z"/>
        <path class="st4" d="M828.13,65.21c-23.19,3.19-44.81,13.49-61.89,29.49,11.94,37.68,29.07,68.98,51.37,93.91-7.48-38.94-4.95-78.46,10.52-123.4Z"/>
      </g>
      <g id="xm-YpS8mBq-U1uD4tCr8f">
        <g class="st11">
          <g id="Layer_1-2">
            <path class="st21" d="M752.69,175.88c0-50.12,40.61-90.74,90.71-90.74s90.71,40.63,90.71,90.74-40.61,90.74-90.71,90.74-90.71-40.63-90.71-90.74h0Z"/>
          </g>
        </g>
      </g>
      <g id="Zb5a4BqOsfUzhKsfL3oAS">
        <g class="st10">
          <g id="Layer_1-21" data-name="Layer_1-2">
            <path class="st21" d="M774.36,175.88c0-38.14,30.91-69.06,69.04-69.06s69.04,30.92,69.04,69.06-30.91,69.06-69.04,69.06-69.04-30.92-69.04-69.06h0Z"/>
          </g>
        </g>
      </g>
      <g id="L3c_qJBb-75yrT1M3BD6c">
        <g class="st9">
          <g id="Layer_1-22" data-name="Layer_1-2">
            <path class="st21" d="M795.15,175.88c0-26.66,21.6-48.26,48.25-48.26s48.25,21.61,48.25,48.26-21.6,48.26-48.25,48.26-48.25-21.61-48.25-48.26Z"/>
          </g>
        </g>
      </g>
    </g>
    <g>
      <path class="st7" d="M691.9,258.17c-1.88,0-3.81-.36-5.77-1.07-4.97-2.09-8.26-5.39-9.98-10.04l-45.65-128.63c-.66-1.81-.99-3.66-.99-5.5,0-3.49.97-6.58,2.96-9.47,1.98-2.88,4.64-4.88,8.12-6.13,1.86-.66,3.71-.99,5.51-.99,3.5,0,6.63.97,9.56,2.97,2.89,1.96,4.91,4.61,6.18,8.11l24.87,70.4,5.39,15.23,5.62-15.15,26.3-70.73c1.33-3.45,3.36-6.07,6.19-7.98,2.86-1.92,5.92-2.85,9.36-2.85,1.9,0,3.86.36,5.85,1.08,3.4,1.32,5.97,3.34,7.81,6.17,1.91,2.93,2.85,6.02,2.85,9.46,0,1.93-.34,3.87-1,5.78l-47.78,128.5c-1.32,3.44-3.36,6.06-6.2,7.98-2.86,1.93-5.88,2.87-9.22,2.87Z"/>
      <path class="st7" d="M533.34,257.68c-1.84,0-3.69-.33-5.5-.98-3.52-1.27-6.18-3.28-8.15-6.14-1.99-2.89-2.96-5.95-2.96-9.36,0-1.84.34-3.75,1-5.68l45.52-128.33c1.73-4.74,4.98-8.04,9.93-10.07,1.9-.68,3.85-1.04,5.7-1.04,3.34,0,6.39.95,9.3,2.89,2.88,1.92,4.91,4.52,6.23,7.94l46.97,126.54.12.32.13.26c1.05,2.11,1.56,4.42,1.56,7.04,0,4.62-1.59,8.46-4.87,11.74s-7.12,4.87-11.74,4.87h-93.23ZM556.81,224.47h45.92l-23.52-63.41-22.4,63.41Z"/>
      <path class="st7" d="M962.67,257.92c-4.62,0-8.47-1.59-11.74-4.87-3.28-3.28-4.87-7.12-4.87-11.74V112.69c0-4.62,1.59-8.47,4.87-11.74,3.28-3.28,7.12-4.87,11.74-4.87s8.46,1.59,11.74,4.87c3.28,3.28,4.87,7.12,4.87,11.74v128.62c0,4.62-1.59,8.47-4.87,11.74-3.28,3.28-7.12,4.87-11.74,4.87Z"/>
      <path class="st7" d="M1181.16,257.43c-4.69,0-8.52-1.58-11.7-4.82-3.22-3.28-4.79-7.17-4.79-11.9s1.53-8.45,4.82-11.76c3.23-3.26,7.05-4.85,11.67-4.85s8.43,1.59,11.66,4.85c3.25,3.27,4.83,7.12,4.83,11.76s-1.56,8.63-4.78,11.9c-3.18,3.24-7.01,4.82-11.7,4.82Z"/>
      <path class="st7" d="M1071.61,258.16c-4.62,0-8.49-1.6-11.81-4.89-3.35-3.32-4.91-7.04-4.91-11.71s1.61-8.5,4.93-11.8c3.31-3.31,7.17-4.92,11.8-4.92,8.59,0,15.91-2.41,21.76-7.17,5.59-4.56,9.82-10.57,12.58-17.87,2.67-7.02,4.02-14.63,4.02-22.61s-1.32-15.61-3.94-22.58c-2.73-7.32-6.97-13.36-12.58-17.95-5.89-4.81-13.24-7.25-21.83-7.25h-37.5v112.15c0,4.6-1.6,8.43-4.9,11.71-3.32,3.29-7.19,4.89-11.81,4.89s-8.5-1.6-11.83-4.89c-3.3-3.27-4.9-7.11-4.9-11.71V112.69c0-4.61,1.6-8.45,4.9-11.72,3.32-3.29,7.19-4.89,11.83-4.89h54.21c11.96,0,22.49,2.32,31.3,6.89,8.89,4.62,16.39,10.82,22.28,18.43,5.99,7.74,10.54,16.55,13.53,26.16,3.03,9.75,4.56,19.72,4.56,29.61s-1.53,19.83-4.56,29.54c-2.99,9.58-7.56,18.39-13.6,26.18-5.92,7.65-13.43,13.85-22.33,18.43-8.84,4.54-19.33,6.84-31.2,6.84Z"/>
      <path class="st7" d="M107.24,258.18c-11.96,0-22.49-2.32-31.31-6.89-8.91-4.63-16.43-10.84-22.36-18.45-6.04-7.76-10.61-16.56-13.58-26.15-3.03-9.74-4.56-19.7-4.56-29.61s1.53-19.84,4.56-29.6c2.99-9.61,7.56-18.41,13.58-26.16,5.95-7.65,13.47-13.88,22.36-18.51,8.82-4.61,19.35-6.95,31.29-6.95h36.28c4.18.22,7.72,1.83,10.79,4.91,3.31,3.31,4.92,7.17,4.92,11.8s-1.61,8.49-4.92,11.81c-3.31,3.31-7.17,4.92-11.79,4.92h-35.27c-8.59,0-15.94,2.44-21.83,7.25-5.63,4.59-9.87,10.66-12.59,18.02-2.61,7.01-3.94,14.59-3.94,22.51s1.32,15.6,3.94,22.59c2.73,7.31,6.96,13.35,12.58,17.95,5.89,4.81,13.24,7.25,21.83,7.25h35.27c4.63,0,8.5,1.6,11.81,4.88,3.3,3.27,4.9,7.15,4.9,11.85s-1.56,8.39-4.9,11.71c-3.32,3.29-7.19,4.89-11.81,4.89h-35.27Z"/>
      <g>
        <path class="st7" d="M440.2,193.42c-4.7,0-8.43-1.54-11.74-4.86-3.27-3.27-4.86-7.11-4.86-11.74s1.59-8.47,4.86-11.74c3.28-3.28,7.12-4.87,11.74-4.87h25.13c4.62,0,8.46,1.59,11.74,4.87,3.27,3.27,4.86,7.11,4.86,11.74s-1.59,8.47-4.86,11.74c-3.31,3.31-7.04,4.86-11.74,4.86h-25.13Z"/>
        <path class="st7" d="M380.18,257.56c-4.62,0-8.46-1.59-11.74-4.87-3.31-3.31-4.86-7.05-4.86-11.74V112.69c0-4.7,1.54-8.43,4.86-11.74,3.28-3.28,7.12-4.87,11.74-4.87h99.76c4.62,0,8.47,1.59,11.74,4.87,3.28,3.28,4.87,7.12,4.87,11.74s-1.59,8.46-4.87,11.74c-3.27,3.27-7.11,4.86-11.74,4.86h-83.15v95.06h83.15c4.7,0,8.43,1.54,11.74,4.86s4.87,7.12,4.87,11.74-1.59,8.47-4.87,11.74c-3.28,3.28-7.12,4.87-11.74,4.87h-99.76Z"/>
      </g>
      <path class="st7" d="M197.21,257.69c-4.61,0-8.45-1.6-11.72-4.9-3.28-3.31-4.87-7.14-4.87-11.71v-64.24c0-4.63,1.59-8.47,4.86-11.74,3.28-3.28,7.12-4.87,11.74-4.87h96.26c4.19,0,7.98-1.58,10.96-4.56,2.98-2.98,4.56-6.77,4.56-10.96s-1.58-7.86-4.56-10.84c-2.98-2.98-6.77-4.56-10.96-4.56h-96.26c-4.7,0-8.43-1.54-11.74-4.86-3.31-3.31-4.86-7.04-4.86-11.74s1.54-8.43,4.86-11.74c3.28-3.28,7.12-4.87,11.74-4.87h97.43c6.33.14,12.3,1.4,17.78,3.75,5.89,2.51,11.09,6.03,15.47,10.46,4.43,4.45,7.96,9.7,10.49,15.59,2.53,5.82,3.81,12.14,3.81,18.81s-1.28,13.09-3.81,18.93c-2.54,5.89-6.09,11.13-10.55,15.59-7.21,7.29-16.26,11.89-26.89,13.68l-14.72,2.5,48.47,31.73c2.48,1.62,4.3,3.6,5.57,6.04,1.31,2.49,1.94,5.04,1.94,7.78,0,3.09-.93,6.09-2.85,9.19-1.59,2.4-3.57,4.2-6.02,5.48-2.52,1.31-5.09,1.94-7.86,1.94h-.38c-3,0-5.82-.88-8.63-2.69l-102.64-66.35v52.55c0,4.55-1.6,8.38-4.89,11.71-3.27,3.3-7.11,4.9-11.72,4.9Z"/>
    </g>
  </g>
</svg>