<?xml version="1.0" encoding="UTF-8"?>
<svg id="Ebene_1" xmlns="http://www.w3.org/2000/svg" xmlns:xlink="http://www.w3.org/1999/xlink" version="1.1" viewBox="0 0 1233.07 354.33">
  <!-- Generator: Adobe Illustrator 29.5.1, SVG Export Plug-In . SVG Version: 2.1.0 Build 141)  -->
  <defs>
    <style>
      .st0 {
        fill: url(#Unbenannter_Verlauf);
      }

      .st1 {
        fill: #fff;
      }

      .st2 {
        opacity: .4;
      }

      .st3 {
        opacity: .35;
      }

      .st4 {
        opacity: .3;
      }

      .st5 {
        fill: #1d3e34;
      }
    </style>
    <linearGradient id="Unbenannter_Verlauf" data-name="Unbenannter Verlauf" x1="-338.89" y1="719.77" x2="-338" y2="719.77" gradientTransform="translate(-84216.96 183846.1) rotate(49.96) scale(254.57 -254.64) skewX(.09)" gradientUnits="userSpaceOnUse">
      <stop offset=".28" stop-color="#29a0b1"/>
      <stop offset="1" stop-color="#ff6b6b"/>
    </linearGradient>
  </defs>
  <rect x="7.09" y="7.09" width="1218.9" height="340.16" rx="26.24" ry="26.24"/>
  <path class="st1" d="M440.2,196.42c-4.7,0-8.43-1.54-11.74-4.86-3.27-3.27-4.86-7.11-4.86-11.74s1.59-8.47,4.86-11.74c3.28-3.28,7.12-4.87,11.74-4.87h25.13c4.62,0,8.46,1.59,11.74,4.87,3.27,3.27,4.86,7.11,4.86,11.74s-1.59,8.47-4.86,11.74c-3.31,3.31-7.04,4.86-11.74,4.86h-25.13Z"/>
  <g>
    <g id="_8">
      <path class="st0" d="M955.5,159.01c-.76-4.34-1.76-8.63-3.02-12.85l-1.17-.18c-6.43-21.01-18.81-39.69-35.67-53.8-3.37-2.83-6.91-5.46-10.58-7.88l-1.01.61c-22.23-14.39-48.77-20.58-75.07-17.52-.14.37-.26.74-.39,1.12-21.81,2.68-42.37,11.64-59.19,25.78-3.37,2.84-6.57,5.86-9.6,9.06.14.37.29.72.43,1.1-14.98,16.07-24.97,36.14-28.76,57.78-.76,4.33-1.27,8.7-1.53,13.09l1.01.58c-1.15,21.94,4.1,43.73,15.1,62.74,2.2,3.83,4.62,7.52,7.25,11.07l1.17-.23c15.98,21.11,38.8,36.01,64.56,42.14l.74-.93c21.41,4.92,43.79,3.52,64.43-4.03,4.12-1.51,8.15-3.26,12.08-5.22v-1.19c19.58-9.97,35.84-25.4,46.81-44.43,2.19-3.82,4.18-7.76,5.93-11.8-.26-.3-.52-.59-.78-.9,8.58-20.22,11.09-42.5,7.26-64.13ZM833.59,206.91c-5.08-4.03-9.97-8.28-14.67-12.75-1.3-6.38-2.3-12.77-3.02-19.2,3.11-5.72,6.46-11.27,10.07-16.66,6.04-2.39,12.17-4.49,18.38-6.33,6.17,2.07,12.21,4.4,18.12,6.97,3.4,5.54,6.54,11.21,9.42,17-.97,6.44-2.2,12.81-3.7,19.13-4.89,4.31-9.92,8.39-15.1,12.24-6.54.13-13.04,0-19.5-.39Z"/>
      <g id="xm-YpS8mBq-U1uD4tCr8f">
        <g class="st4">
          <g id="Layer_1-2">
            <path class="st5" d="M753.53,178.92c0-49.74,40.32-90.07,90.07-90.07s90.07,40.32,90.07,90.07-40.32,90.07-90.07,90.07-90.07-40.32-90.07-90.07h0Z"/>
          </g>
        </g>
      </g>
      <g id="Zb5a4BqOsfUzhKsfL3oAS">
        <g class="st3">
          <g id="Layer_1-21" data-name="Layer_1-2">
            <path class="st5" d="M775.05,178.92c0-37.86,30.69-68.55,68.55-68.55s68.55,30.69,68.55,68.55-30.69,68.55-68.55,68.55-68.55-30.69-68.55-68.55h0Z"/>
          </g>
        </g>
      </g>
      <g id="L3c_qJBb-75yrT1M3BD6c">
        <g class="st2">
          <g id="Layer_1-22" data-name="Layer_1-2">
            <path class="st5" d="M795.69,178.92c0-26.46,21.45-47.9,47.9-47.9s47.9,21.45,47.9,47.9-21.45,47.9-47.9,47.9-47.9-21.45-47.9-47.9Z"/>
          </g>
        </g>
      </g>
      <g id="_81" data-name="_8">
        <path d="M843.77,63.76c-64.49,0-116.77,52.27-116.78,116.76-.01,64.49,52.26,116.78,116.75,116.8,64.49.02,116.78-52.24,116.81-116.72-.07-64.47-52.31-116.72-116.78-116.83ZM947.31,222.69c-30.75-35.48-63.35-57.2-100.36-70.03,32.33-6.78,67.57-5.96,105.7,2.46,5.26,22.53,3.4,46.15-5.32,67.58h-.03ZM761.04,105.46c16.76,43.72,39.93,75.2,70.25,99.87-32.7-4.7-65.52-17.52-98.46-38.47,2.82-22.9,12.68-44.35,28.22-61.41ZM767.52,98.91c16.84-15.77,38.16-25.93,61.03-29.07-15.25,44.29-17.75,83.25-10.37,121.64-21.99-24.57-38.88-55.42-50.66-92.56ZM818.6,191.95c-.81-6.24-1.32-12.54-1.55-18.89,3.39-5.3,7.04-10.46,10.95-15.46,6.04-1.89,12.15-3.49,18.33-4.81,5.82,2.43,11.52,5.11,17.11,8.05,2.9,5.59,5.54,11.33,7.92,17.22-1.38,6.12-3.06,12.2-5.03,18.24-5.01,3.83-10.22,7.43-15.62,10.81-6.28-.28-12.56-.87-18.85-1.75-4.59-4.22-9.01-8.69-13.27-13.42ZM950.13,146.21c-46.31-7.38-85.2-3.02-121.76,10.88,20.39-25.93,47.84-47.92,82.37-65.96,18.48,13.86,32.24,33.1,39.39,55.08ZM903.14,85.91c-40.14,24.1-67.11,52.35-86.13,86.5-1.06-32.96,5.84-67.44,20.7-103.46,2.01-.11,4.03-.16,6.04-.17,21.03-.03,41.63,5.91,59.41,17.12h-.02ZM732.08,176.07c41,22.78,79.02,32.03,118.15,31.44-28.09,17.45-61.5,28.73-100.24,33.85-11.79-18.08-18.05-39.2-18.02-60.78,0-1.51.04-3.01.1-4.51ZM755.35,248.89c46.11-8.91,81.22-26.26,110.84-51.89-10.33,31.45-28.71,61.61-55.14,90.47-22.1-6.81-41.56-20.28-55.7-38.58ZM819.99,289.81c29.66-36.49,45.41-72.39,51.63-111.11,12.32,30.73,17.62,65.63,15.93,104.7-21.31,9.07-44.92,11.29-67.56,6.37v.04ZM895.89,279.45c-.74-47-11.75-84.61-31.86-118.26,29.15,15.6,55.64,38.9,79.45,69.9-10.51,20.63-27.13,37.51-47.59,48.35Z"/>
      </g>
      <g id="_82" data-name="_8">
        <path d="M971.32,180.17c0-51.59-31.08-98.1-78.74-117.85-47.67-19.74-102.53-8.82-139.01,27.66-36.48,36.48-47.39,91.35-27.64,139.01,19.74,47.66,66.26,78.73,117.85,78.73,70.41-.08,127.47-57.15,127.55-127.56ZM721.25,180.17c0-67.67,54.85-122.52,122.52-122.52s122.52,54.85,122.52,122.52-54.85,122.52-122.52,122.52c-67.64-.08-122.44-54.88-122.52-122.52Z"/>
      </g>
    </g>
    <g>
      <path class="st1" d="M691.9,261.17c-1.88,0-3.81-.36-5.77-1.07-4.97-2.09-8.26-5.39-9.98-10.04l-45.65-128.63c-.66-1.81-.99-3.66-.99-5.5,0-3.49.97-6.58,2.96-9.47,1.98-2.88,4.64-4.88,8.12-6.13,1.86-.66,3.71-.99,5.51-.99,3.5,0,6.63.97,9.56,2.97,2.89,1.96,4.91,4.61,6.18,8.11l24.87,70.4,5.39,15.23,5.62-15.15,26.3-70.73c1.33-3.45,3.36-6.07,6.19-7.98,2.86-1.92,5.92-2.85,9.36-2.85,1.9,0,3.86.36,5.85,1.08,3.4,1.32,5.97,3.34,7.81,6.17,1.91,2.93,2.85,6.02,2.85,9.46,0,1.93-.34,3.87-1,5.78l-47.78,128.5c-1.32,3.44-3.36,6.06-6.2,7.98-2.86,1.93-5.88,2.87-9.22,2.87Z"/>
      <path class="st1" d="M533.34,260.68c-1.84,0-3.69-.33-5.5-.98-3.52-1.27-6.18-3.28-8.15-6.14-1.99-2.89-2.96-5.95-2.96-9.36,0-1.84.34-3.75,1-5.68l45.52-128.33c1.73-4.74,4.98-8.04,9.93-10.07,1.9-.68,3.85-1.04,5.7-1.04,3.34,0,6.39.95,9.3,2.89,2.88,1.92,4.91,4.52,6.23,7.94l46.97,126.54.12.32.13.26c1.05,2.11,1.56,4.42,1.56,7.04,0,4.62-1.59,8.46-4.87,11.74s-7.12,4.87-11.74,4.87h-93.23ZM556.81,227.47h45.92l-23.52-63.41-22.4,63.41Z"/>
      <path class="st1" d="M962.67,260.92c-4.62,0-8.47-1.59-11.74-4.87-3.28-3.28-4.87-7.12-4.87-11.74V115.69c0-4.62,1.59-8.47,4.87-11.74,3.28-3.28,7.12-4.87,11.74-4.87s8.46,1.59,11.74,4.87c3.28,3.28,4.87,7.12,4.87,11.74v128.62c0,4.62-1.59,8.47-4.87,11.74-3.28,3.28-7.12,4.87-11.74,4.87Z"/>
      <path class="st1" d="M1181.16,260.43c-4.69,0-8.52-1.58-11.7-4.82-3.22-3.28-4.79-7.17-4.79-11.9s1.53-8.45,4.82-11.76c3.23-3.26,7.05-4.85,11.67-4.85s8.43,1.59,11.66,4.85c3.25,3.27,4.83,7.12,4.83,11.76s-1.56,8.63-4.78,11.9c-3.18,3.24-7.01,4.82-11.7,4.82Z"/>
      <path class="st1" d="M1071.61,261.16c-4.62,0-8.49-1.6-11.81-4.89-3.35-3.32-4.91-7.04-4.91-11.71s1.61-8.5,4.93-11.8c3.31-3.31,7.17-4.92,11.8-4.92,8.59,0,15.91-2.41,21.76-7.17,5.59-4.56,9.82-10.57,12.58-17.87,2.67-7.02,4.02-14.63,4.02-22.61s-1.32-15.61-3.94-22.58c-2.73-7.32-6.97-13.36-12.58-17.95-5.89-4.81-13.24-7.25-21.83-7.25h-37.5v112.15c0,4.6-1.6,8.43-4.9,11.71-3.32,3.29-7.19,4.89-11.81,4.89s-8.5-1.6-11.83-4.89c-3.3-3.27-4.9-7.11-4.9-11.71V115.69c0-4.61,1.6-8.45,4.9-11.72,3.32-3.29,7.19-4.89,11.83-4.89h54.21c11.96,0,22.49,2.32,31.3,6.89,8.89,4.62,16.39,10.82,22.28,18.43,5.99,7.74,10.54,16.55,13.53,26.16,3.03,9.75,4.56,19.72,4.56,29.61s-1.53,19.83-4.56,29.54c-2.99,9.58-7.56,18.39-13.6,26.18-5.92,7.65-13.43,13.85-22.33,18.43-8.84,4.54-19.33,6.84-31.2,6.84Z"/>
      <path class="st1" d="M107.24,261.18c-11.96,0-22.49-2.32-31.31-6.89-8.91-4.63-16.43-10.84-22.36-18.45-6.04-7.76-10.61-16.56-13.58-26.15-3.03-9.74-4.56-19.7-4.56-29.61s1.53-19.84,4.56-29.6c2.99-9.61,7.56-18.41,13.58-26.16,5.95-7.65,13.47-13.88,22.36-18.51,8.82-4.61,19.35-6.95,31.29-6.95h36.28c4.18.22,7.72,1.83,10.79,4.91,3.31,3.31,4.92,7.17,4.92,11.8s-1.61,8.49-4.92,11.81c-3.31,3.31-7.17,4.92-11.79,4.92h-35.27c-8.59,0-15.94,2.44-21.83,7.25-5.63,4.59-9.87,10.66-12.59,18.02-2.61,7.01-3.94,14.59-3.94,22.51s1.32,15.6,3.94,22.59c2.73,7.31,6.96,13.35,12.58,17.95,5.89,4.81,13.24,7.25,21.83,7.25h35.27c4.63,0,8.5,1.6,11.81,4.88,3.3,3.27,4.9,7.15,4.9,11.85s-1.56,8.39-4.9,11.71c-3.32,3.29-7.19,4.89-11.81,4.89h-35.27Z"/>
      <path class="st1" d="M380.18,260.56c-4.62,0-8.46-1.59-11.74-4.87-3.31-3.31-4.86-7.05-4.86-11.74V115.69c0-4.7,1.54-8.43,4.86-11.74,3.28-3.28,7.12-4.87,11.74-4.87h99.76c4.62,0,8.47,1.59,11.74,4.87,3.28,3.28,4.87,7.12,4.87,11.74s-1.59,8.46-4.87,11.74c-3.27,3.27-7.11,4.86-11.74,4.86h-83.15v95.06h83.15c4.7,0,8.43,1.54,11.74,4.86s4.87,7.12,4.87,11.74-1.59,8.47-4.87,11.74c-3.28,3.28-7.12,4.87-11.74,4.87h-99.76Z"/>
      <path class="st1" d="M197.21,260.69c-4.61,0-8.45-1.6-11.72-4.9-3.28-3.31-4.87-7.14-4.87-11.71v-64.24c0-4.63,1.59-8.47,4.86-11.74,3.28-3.28,7.12-4.87,11.74-4.87h96.26c4.19,0,7.98-1.58,10.96-4.56,2.98-2.98,4.56-6.77,4.56-10.96s-1.58-7.86-4.56-10.84c-2.98-2.98-6.77-4.56-10.96-4.56h-96.26c-4.7,0-8.43-1.54-11.74-4.86-3.31-3.31-4.86-7.04-4.86-11.74s1.54-8.43,4.86-11.74c3.28-3.28,7.12-4.87,11.74-4.87h97.43c6.33.14,12.3,1.4,17.78,3.75,5.89,2.51,11.09,6.03,15.47,10.46,4.43,4.45,7.96,9.7,10.49,15.59,2.53,5.82,3.81,12.14,3.81,18.81s-1.28,13.09-3.81,18.93c-2.54,5.89-6.09,11.13-10.55,15.59-7.21,7.29-16.26,11.89-26.89,13.68l-14.72,2.5,48.47,31.73c2.48,1.62,4.3,3.6,5.57,6.04,1.31,2.49,1.94,5.04,1.94,7.78,0,3.09-.93,6.09-2.85,9.19-1.59,2.4-3.57,4.2-6.02,5.48-2.52,1.31-5.09,1.94-7.86,1.94h-.38c-3,0-5.82-.88-8.63-2.69l-102.64-66.35v52.55c0,4.55-1.6,8.38-4.89,11.71-3.27,3.3-7.11,4.9-11.72,4.9Z"/>
    </g>
  </g>
</svg>